<svg id="visual" viewBox="0 0 900 600" width="900" height="600" xmlns="http://www.w3.org/2000/svg" xmlns:xlink="http://www.w3.org/1999/xlink" version="1.1"><path d="M0 49L13.7 48C27.3 47 54.7 45 82 54C109.3 63 136.7 83 163.8 88C191 93 218 83 245.2 81C272.3 79 299.7 85 327 83C354.3 81 381.7 71 409 73C436.3 75 463.7 89 491 89C518.3 89 545.7 75 573 70C600.3 65 627.7 69 654.8 65C682 61 709 49 736.2 47C763.3 45 790.7 53 818 62C845.3 71 872.7 81 886.3 86L900 91L900 0L886.3 0C872.7 0 845.3 0 818 0C790.7 0 763.3 0 736.2 0C709 0 682 0 654.8 0C627.7 0 600.3 0 573 0C545.7 0 518.3 0 491 0C463.7 0 436.3 0 409 0C381.7 0 354.3 0 327 0C299.7 0 272.3 0 245.2 0C218 0 191 0 163.8 0C136.7 0 109.3 0 82 0C54.7 0 27.3 0 13.7 0L0 0Z" fill="#fec879"></path><path d="M0 205L13.7 204C27.3 203 54.7 201 82 213C109.3 225 136.7 251 163.8 256C191 261 218 245 245.2 236C272.3 227 299.7 225 327 221C354.3 217 381.7 211 409 217C436.3 223 463.7 241 491 242C518.3 243 545.7 227 573 232C600.3 237 627.7 263 654.8 257C682 251 709 213 736.2 216C763.3 219 790.7 263 818 268C845.3 273 872.7 239 886.3 222L900 205L900 89L886.3 84C872.7 79 845.3 69 818 60C790.7 51 763.3 43 736.2 45C709 47 682 59 654.8 63C627.7 67 600.3 63 573 68C545.7 73 518.3 87 491 87C463.7 87 436.3 73 409 71C381.7 69 354.3 79 327 81C299.7 83 272.3 77 245.2 79C218 81 191 91 163.8 86C136.7 81 109.3 61 82 52C54.7 43 27.3 45 13.7 46L0 47Z" fill="#fdbb5c"></path><path d="M0 361L13.7 360C27.3 359 54.7 357 82 356C109.3 355 136.7 355 163.8 353C191 351 218 347 245.2 334C272.3 321 299.7 299 327 302C354.3 305 381.7 333 409 352C436.3 371 463.7 381 491 371C518.3 361 545.7 331 573 325C600.3 319 627.7 337 654.8 339C682 341 709 327 736.2 331C763.3 335 790.7 357 818 362C845.3 367 872.7 355 886.3 349L900 343L900 203L886.3 220C872.7 237 845.3 271 818 266C790.7 261 763.3 217 736.2 214C709 211 682 249 654.8 255C627.7 261 600.3 235 573 230C545.7 225 518.3 241 491 240C463.7 239 436.3 221 409 215C381.7 209 354.3 215 327 219C299.7 223 272.3 225 245.2 234C218 243 191 259 163.8 254C136.7 249 109.3 223 82 211C54.7 199 27.3 201 13.7 202L0 203Z" fill="#fbae3c"></path><path d="M0 451L13.7 454C27.3 457 54.7 463 82 461C109.3 459 136.7 449 163.8 443C191 437 218 435 245.2 420C272.3 405 299.7 377 327 376C354.3 375 381.7 401 409 426C436.3 451 463.7 475 491 464C518.3 453 545.7 407 573 402C600.3 397 627.7 433 654.8 442C682 451 709 433 736.2 432C763.3 431 790.7 447 818 452C845.3 457 872.7 451 886.3 448L900 445L900 341L886.3 347C872.7 353 845.3 365 818 360C790.7 355 763.3 333 736.2 329C709 325 682 339 654.8 337C627.7 335 600.3 317 573 323C545.7 329 518.3 359 491 369C463.7 379 436.3 369 409 350C381.7 331 354.3 303 327 300C299.7 297 272.3 319 245.2 332C218 345 191 349 163.8 351C136.7 353 109.3 353 82 354C54.7 355 27.3 357 13.7 358L0 359Z" fill="#dc9732"></path><path d="M0 601L13.7 601C27.3 601 54.7 601 82 601C109.3 601 136.7 601 163.8 601C191 601 218 601 245.2 601C272.3 601 299.7 601 327 601C354.3 601 381.7 601 409 601C436.3 601 463.7 601 491 601C518.3 601 545.7 601 573 601C600.3 601 627.7 601 654.8 601C682 601 709 601 736.2 601C763.3 601 790.7 601 818 601C845.3 601 872.7 601 886.3 601L900 601L900 443L886.3 446C872.7 449 845.3 455 818 450C790.7 445 763.3 429 736.2 430C709 431 682 449 654.8 440C627.7 431 600.3 395 573 400C545.7 405 518.3 451 491 462C463.7 473 436.3 449 409 424C381.7 399 354.3 373 327 374C299.7 375 272.3 403 245.2 418C218 433 191 435 163.8 441C136.7 447 109.3 457 82 459C54.7 461 27.3 455 13.7 452L0 449Z" fill="#bd8028"></path></svg>