<svg id="visual" viewBox="0 0 900 450" width="900" height="450" xmlns="http://www.w3.org/2000/svg" xmlns:xlink="http://www.w3.org/1999/xlink" version="1.1"><rect x="0" y="0" width="900" height="450" fill="#fafafa"></rect><defs><linearGradient id="grad1_0" x1="50%" y1="100%" x2="100%" y2="0%"><stop offset="10%" stop-color="#fafafa" stop-opacity="1"></stop><stop offset="90%" stop-color="#fafafa" stop-opacity="1"></stop></linearGradient></defs><defs><linearGradient id="grad2_0" x1="0%" y1="100%" x2="50%" y2="0%"><stop offset="10%" stop-color="#fafafa" stop-opacity="1"></stop><stop offset="90%" stop-color="#fafafa" stop-opacity="1"></stop></linearGradient></defs><g transform="translate(900, 450)"><path d="M-225 0C-215.3 -17.7 -205.5 -35.5 -199.9 -53.6C-194.3 -71.7 -192.9 -90.1 -186.2 -107.5C-179.5 -124.9 -167.6 -141.1 -153.4 -153.4C-139.3 -165.8 -122.8 -174.2 -107 -185.3C-91.2 -196.5 -76 -210.3 -58.2 -217.3C-40.5 -224.4 -20.3 -224.7 0 -225L0 0Z" fill="#FBAE3C"></path></g><g transform="translate(0, 0)"><path d="M225 0C223.9 20.2 222.7 40.5 213.5 57.2C204.2 73.9 186.8 87.1 171.5 99C156.1 110.9 142.7 121.5 129.4 129.4C116.1 137.3 102.7 142.6 92 159.3C81.3 176.1 73.1 204.5 58.2 217.3C43.3 230.2 21.7 227.6 0 225L0 0Z" fill="#FBAE3C"></path></g></svg>