<svg id="visual" viewBox="0 0 900 600" width="900" height="600" xmlns="http://www.w3.org/2000/svg" xmlns:xlink="http://www.w3.org/1999/xlink" version="1.1"><rect x="0" y="0" width="900" height="600" fill="#d6d6d6"></rect><defs><linearGradient id="grad1_0" x1="33.3%" y1="0%" x2="100%" y2="100%"><stop offset="20%" stop-color="#d6d6d6" stop-opacity="1"></stop><stop offset="80%" stop-color="#d6d6d6" stop-opacity="1"></stop></linearGradient></defs><defs><linearGradient id="grad2_0" x1="0%" y1="0%" x2="66.7%" y2="100%"><stop offset="20%" stop-color="#d6d6d6" stop-opacity="1"></stop><stop offset="80%" stop-color="#d6d6d6" stop-opacity="1"></stop></linearGradient></defs><g transform="translate(900, 0)"><path d="M0 351.5C-13.7 299.8 -27.4 248.1 -57.9 253.5C-88.3 258.8 -135.5 321.3 -152.5 316.7C-169.5 312.2 -156.2 240.6 -170.2 213.4C-184.2 186.2 -225.4 203.3 -244.7 195.2C-264 187 -261.3 153.5 -268.5 129.3C-275.6 105.1 -292.6 90.3 -308.1 70.3C-323.6 50.3 -337.5 25.2 -351.5 0L0 0Z" fill="#4a4a4a"></path></g><g transform="translate(0, 600)"><path d="M0 -351.5C15.2 -300.5 30.4 -249.5 56.7 -248.6C83.1 -247.7 120.6 -296.8 148 -307.2C175.3 -317.6 192.5 -289.3 216.4 -271.3C240.2 -253.3 270.8 -245.5 274.8 -219.2C278.9 -192.9 256.4 -148 246.9 -118.9C237.3 -89.8 240.7 -76.6 260.3 -59.4C279.9 -42.2 315.7 -21.1 351.5 0L0 0Z" fill="#4a4a4a"></path></g></svg>