<svg id="visual" viewBox="0 0 900 450" width="900" height="450" xmlns="http://www.w3.org/2000/svg" xmlns:xlink="http://www.w3.org/1999/xlink" version="1.1"><path d="M0 181L13.7 175C27.3 169 54.7 157 82 148C109.3 139 136.7 133 163.8 133.8C191 134.7 218 142.3 245.2 146.2C272.3 150 299.7 150 327 153C354.3 156 381.7 162 409 161.2C436.3 160.3 463.7 152.7 491 142.8C518.3 133 545.7 121 573 130C600.3 139 627.7 169 654.8 173.5C682 178 709 157 736.2 149.5C763.3 142 790.7 148 818 148C845.3 148 872.7 142 886.3 139L900 136L900 0L886.3 0C872.7 0 845.3 0 818 0C790.7 0 763.3 0 736.2 0C709 0 682 0 654.8 0C627.7 0 600.3 0 573 0C545.7 0 518.3 0 491 0C463.7 0 436.3 0 409 0C381.7 0 354.3 0 327 0C299.7 0 272.3 0 245.2 0C218 0 191 0 163.8 0C136.7 0 109.3 0 82 0C54.7 0 27.3 0 13.7 0L0 0Z" fill="#fafafa"></path><path d="M0 258L13.7 244.5C27.3 231 54.7 204 82 192C109.3 180 136.7 183 163.8 187.5C191 192 218 198 245.2 199.5C272.3 201 299.7 198 327 196.5C354.3 195 381.7 195 409 198.7C436.3 202.3 463.7 209.7 491 205.2C518.3 200.7 545.7 184.3 573 191.2C600.3 198 627.7 228 654.8 235.5C682 243 709 228 736.2 216.7C763.3 205.3 790.7 197.7 818 189.3C845.3 181 872.7 172 886.3 167.5L900 163L900 134L886.3 137C872.7 140 845.3 146 818 146C790.7 146 763.3 140 736.2 147.5C709 155 682 176 654.8 171.5C627.7 167 600.3 137 573 128C545.7 119 518.3 131 491 140.8C463.7 150.7 436.3 158.3 409 159.2C381.7 160 354.3 154 327 151C299.7 148 272.3 148 245.2 144.2C218 140.3 191 132.7 163.8 131.8C136.7 131 109.3 137 82 146C54.7 155 27.3 167 13.7 173L0 179Z" fill="#ffca86"></path><path d="M0 321L13.7 314.2C27.3 307.3 54.7 293.7 82 285.3C109.3 277 136.7 274 163.8 272.5C191 271 218 271 245.2 272.5C272.3 274 299.7 277 327 285.3C354.3 293.7 381.7 307.3 409 308.2C436.3 309 463.7 297 491 299.2C518.3 301.3 545.7 317.7 573 326.7C600.3 335.7 627.7 337.3 654.8 325.3C682 313.3 709 287.7 736.2 276.3C763.3 265 790.7 268 818 281.5C845.3 295 872.7 319 886.3 331L900 343L900 161L886.3 165.5C872.7 170 845.3 179 818 187.3C790.7 195.7 763.3 203.3 736.2 214.7C709 226 682 241 654.8 233.5C627.7 226 600.3 196 573 189.2C545.7 182.3 518.3 198.7 491 203.2C463.7 207.7 436.3 200.3 409 196.7C381.7 193 354.3 193 327 194.5C299.7 196 272.3 199 245.2 197.5C218 196 191 190 163.8 185.5C136.7 181 109.3 178 82 190C54.7 202 27.3 229 13.7 242.5L0 256Z" fill="#fbae3c"></path><path d="M0 370L13.7 370.8C27.3 371.7 54.7 373.3 82 374.2C109.3 375 136.7 375 163.8 372C191 369 218 363 245.2 361.5C272.3 360 299.7 363 327 370.5C354.3 378 381.7 390 409 393.7C436.3 397.3 463.7 392.7 491 395.7C518.3 398.7 545.7 409.3 573 409.3C600.3 409.3 627.7 398.7 654.8 389.7C682 380.7 709 373.3 736.2 367.3C763.3 361.3 790.7 356.7 818 360.3C845.3 364 872.7 376 886.3 382L900 388L900 341L886.3 329C872.7 317 845.3 293 818 279.5C790.7 266 763.3 263 736.2 274.3C709 285.7 682 311.3 654.8 323.3C627.7 335.3 600.3 333.7 573 324.7C545.7 315.7 518.3 299.3 491 297.2C463.7 295 436.3 307 409 306.2C381.7 305.3 354.3 291.7 327 283.3C299.7 275 272.3 272 245.2 270.5C218 269 191 269 163.8 270.5C136.7 272 109.3 275 82 283.3C54.7 291.7 27.3 305.3 13.7 312.2L0 319Z" fill="#ffca86"></path><path d="M0 451L13.7 451C27.3 451 54.7 451 82 451C109.3 451 136.7 451 163.8 451C191 451 218 451 245.2 451C272.3 451 299.7 451 327 451C354.3 451 381.7 451 409 451C436.3 451 463.7 451 491 451C518.3 451 545.7 451 573 451C600.3 451 627.7 451 654.8 451C682 451 709 451 736.2 451C763.3 451 790.7 451 818 451C845.3 451 872.7 451 886.3 451L900 451L900 386L886.3 380C872.7 374 845.3 362 818 358.3C790.7 354.7 763.3 359.3 736.2 365.3C709 371.3 682 378.7 654.8 387.7C627.7 396.7 600.3 407.3 573 407.3C545.7 407.3 518.3 396.7 491 393.7C463.7 390.7 436.3 395.3 409 391.7C381.7 388 354.3 376 327 368.5C299.7 361 272.3 358 245.2 359.5C218 361 191 367 163.8 370C136.7 373 109.3 373 82 372.2C54.7 371.3 27.3 369.7 13.7 368.8L0 368Z" fill="#fafafa"></path></svg>