<svg id="visual" viewBox="0 0 900 600" width="900" height="600" xmlns="http://www.w3.org/2000/svg" xmlns:xlink="http://www.w3.org/1999/xlink" version="1.1"><path d="M0 37L82 37L82 79L164 79L164 73L245 73L245 79L327 79L327 79L409 79L409 103L491 103L491 73L573 73L573 67L655 67L655 103L736 103L736 37L818 37L818 61L900 61L900 97L900 0L900 0L818 0L818 0L736 0L736 0L655 0L655 0L573 0L573 0L491 0L491 0L409 0L409 0L327 0L327 0L245 0L245 0L164 0L164 0L82 0L82 0L0 0Z" fill="#fec879"></path><path d="M0 253L82 253L82 325L164 325L164 247L245 247L245 205L327 205L327 193L409 193L409 319L491 319L491 343L573 343L573 265L655 265L655 199L736 199L736 163L818 163L818 253L900 253L900 289L900 95L900 59L818 59L818 35L736 35L736 101L655 101L655 65L573 65L573 71L491 71L491 101L409 101L409 77L327 77L327 77L245 77L245 71L164 71L164 77L82 77L82 35L0 35Z" fill="#fdbb5c"></path><path d="M0 325L82 325L82 457L164 457L164 397L245 397L245 463L327 463L327 403L409 403L409 457L491 457L491 433L573 433L573 427L655 427L655 421L736 421L736 367L818 367L818 457L900 457L900 367L900 287L900 251L818 251L818 161L736 161L736 197L655 197L655 263L573 263L573 341L491 341L491 317L409 317L409 191L327 191L327 203L245 203L245 245L164 245L164 323L82 323L82 251L0 251Z" fill="#fbae3c"></path><path d="M0 457L82 457L82 541L164 541L164 469L245 469L245 529L327 529L327 463L409 463L409 517L491 517L491 535L573 535L573 541L655 541L655 517L736 517L736 475L818 475L818 535L900 535L900 487L900 365L900 455L818 455L818 365L736 365L736 419L655 419L655 425L573 425L573 431L491 431L491 455L409 455L409 401L327 401L327 461L245 461L245 395L164 395L164 455L82 455L82 323L0 323Z" fill="#dc9732"></path><path d="M0 601L82 601L82 601L164 601L164 601L245 601L245 601L327 601L327 601L409 601L409 601L491 601L491 601L573 601L573 601L655 601L655 601L736 601L736 601L818 601L818 601L900 601L900 601L900 485L900 533L818 533L818 473L736 473L736 515L655 515L655 539L573 539L573 533L491 533L491 515L409 515L409 461L327 461L327 527L245 527L245 467L164 467L164 539L82 539L82 455L0 455Z" fill="#bd8028"></path></svg>