<?xml version="1.0" standalone="no"?><svg xmlns="http://www.w3.org/2000/svg" viewBox="0 0 1440 320"><path fill="#4a4a4a" fill-opacity="1" d="M0,192L30,176C60,160,120,128,180,138.7C240,149,300,203,360,218.7C420,235,480,213,540,170.7C600,128,660,64,720,85.3C780,107,840,213,900,224C960,235,1020,149,1080,144C1140,139,1200,213,1260,240C1320,267,1380,245,1410,234.7L1440,224L1440,320L1410,320C1380,320,1320,320,1260,320C1200,320,1140,320,1080,320C1020,320,960,320,900,320C840,320,780,320,720,320C660,320,600,320,540,320C480,320,420,320,360,320C300,320,240,320,180,320C120,320,60,320,30,320L0,320Z"></path></svg>