<svg id="visual" viewBox="0 0 900 600" width="900" height="600" xmlns="http://www.w3.org/2000/svg" xmlns:xlink="http://www.w3.org/1999/xlink" version="1.1"><rect x="0" y="0" width="900" height="600" fill="#fafafa"></rect><path d="M0 506L11.5 506.5C23 507 46 508 69 509.8C92 511.7 115 514.3 138.2 513.3C161.3 512.3 184.7 507.7 207.8 499.8C231 492 254 481 277 480.2C300 479.3 323 488.7 346 489.5C369 490.3 392 482.7 415.2 484.2C438.3 485.7 461.7 496.3 484.8 494.2C508 492 531 477 554 473.3C577 469.7 600 477.3 623 483.8C646 490.3 669 495.7 692.2 500.7C715.3 505.7 738.7 510.3 761.8 511.8C785 513.3 808 511.7 831 506.8C854 502 877 494 888.5 490L900 486L900 601L888.5 601C877 601 854 601 831 601C808 601 785 601 761.8 601C738.7 601 715.3 601 692.2 601C669 601 646 601 623 601C600 601 577 601 554 601C531 601 508 601 484.8 601C461.7 601 438.3 601 415.2 601C392 601 369 601 346 601C323 601 300 601 277 601C254 601 231 601 207.8 601C184.7 601 161.3 601 138.2 601C115 601 92 601 69 601C46 601 23 601 11.5 601L0 601Z" fill="#fafafa"></path><path d="M0 511L11.5 511.2C23 511.3 46 511.7 69 510.8C92 510 115 508 138.2 510.3C161.3 512.7 184.7 519.3 207.8 518.5C231 517.7 254 509.3 277 505C300 500.7 323 500.3 346 502.5C369 504.7 392 509.3 415.2 506.8C438.3 504.3 461.7 494.7 484.8 492.5C508 490.3 531 495.7 554 502.8C577 510 600 519 623 517.5C646 516 669 504 692.2 498.8C715.3 493.7 738.7 495.3 761.8 496.5C785 497.7 808 498.3 831 496.5C854 494.7 877 490.3 888.5 488.2L900 486L900 601L888.5 601C877 601 854 601 831 601C808 601 785 601 761.8 601C738.7 601 715.3 601 692.2 601C669 601 646 601 623 601C600 601 577 601 554 601C531 601 508 601 484.8 601C461.7 601 438.3 601 415.2 601C392 601 369 601 346 601C323 601 300 601 277 601C254 601 231 601 207.8 601C184.7 601 161.3 601 138.2 601C115 601 92 601 69 601C46 601 23 601 11.5 601L0 601Z" fill="#d4d4d4"></path><path d="M0 533L11.5 529.7C23 526.3 46 519.7 69 518.2C92 516.7 115 520.3 138.2 519.3C161.3 518.3 184.7 512.7 207.8 515.2C231 517.7 254 528.3 277 533.8C300 539.3 323 539.7 346 539.7C369 539.7 392 539.3 415.2 538.7C438.3 538 461.7 537 484.8 534C508 531 531 526 554 521.2C577 516.3 600 511.7 623 513.8C646 516 669 525 692.2 527.7C715.3 530.3 738.7 526.7 761.8 525.2C785 523.7 808 524.3 831 526.7C854 529 877 533 888.5 535L900 537L900 601L888.5 601C877 601 854 601 831 601C808 601 785 601 761.8 601C738.7 601 715.3 601 692.2 601C669 601 646 601 623 601C600 601 577 601 554 601C531 601 508 601 484.8 601C461.7 601 438.3 601 415.2 601C392 601 369 601 346 601C323 601 300 601 277 601C254 601 231 601 207.8 601C184.7 601 161.3 601 138.2 601C115 601 92 601 69 601C46 601 23 601 11.5 601L0 601Z" fill="#afafaf"></path><path d="M0 528L11.5 527.3C23 526.7 46 525.3 69 527.3C92 529.3 115 534.7 138.2 537.3C161.3 540 184.7 540 207.8 541.8C231 543.7 254 547.3 277 546.8C300 546.3 323 541.7 346 541.2C369 540.7 392 544.3 415.2 546.7C438.3 549 461.7 550 484.8 547C508 544 531 537 554 534.5C577 532 600 534 623 538.3C646 542.7 669 549.3 692.2 550C715.3 550.7 738.7 545.3 761.8 544.8C785 544.3 808 548.7 831 548.7C854 548.7 877 544.3 888.5 542.2L900 540L900 601L888.5 601C877 601 854 601 831 601C808 601 785 601 761.8 601C738.7 601 715.3 601 692.2 601C669 601 646 601 623 601C600 601 577 601 554 601C531 601 508 601 484.8 601C461.7 601 438.3 601 415.2 601C392 601 369 601 346 601C323 601 300 601 277 601C254 601 231 601 207.8 601C184.7 601 161.3 601 138.2 601C115 601 92 601 69 601C46 601 23 601 11.5 601L0 601Z" fill="#8c8c8c"></path><path d="M0 556L11.5 555.5C23 555 46 554 69 553.3C92 552.7 115 552.3 138.2 552.8C161.3 553.3 184.7 554.7 207.8 554.3C231 554 254 552 277 553.5C300 555 323 560 346 563C369 566 392 567 415.2 566.5C438.3 566 461.7 564 484.8 564C508 564 531 566 554 563C577 560 600 552 623 549.2C646 546.3 669 548.7 692.2 550.2C715.3 551.7 738.7 552.3 761.8 553.3C785 554.3 808 555.7 831 556.5C854 557.3 877 557.7 888.5 557.8L900 558L900 601L888.5 601C877 601 854 601 831 601C808 601 785 601 761.8 601C738.7 601 715.3 601 692.2 601C669 601 646 601 623 601C600 601 577 601 554 601C531 601 508 601 484.8 601C461.7 601 438.3 601 415.2 601C392 601 369 601 346 601C323 601 300 601 277 601C254 601 231 601 207.8 601C184.7 601 161.3 601 138.2 601C115 601 92 601 69 601C46 601 23 601 11.5 601L0 601Z" fill="#6a6a6a"></path><path d="M0 569L11.5 571.2C23 573.3 46 577.7 69 577C92 576.3 115 570.7 138.2 569.8C161.3 569 184.7 573 207.8 576C231 579 254 581 277 579C300 577 323 571 346 571C369 571 392 577 415.2 577.3C438.3 577.7 461.7 572.3 484.8 569.7C508 567 531 567 554 568C577 569 600 571 623 573.7C646 576.3 669 579.7 692.2 578C715.3 576.3 738.7 569.7 761.8 569.5C785 569.3 808 575.7 831 577.5C854 579.3 877 576.7 888.5 575.3L900 574L900 601L888.5 601C877 601 854 601 831 601C808 601 785 601 761.8 601C738.7 601 715.3 601 692.2 601C669 601 646 601 623 601C600 601 577 601 554 601C531 601 508 601 484.8 601C461.7 601 438.3 601 415.2 601C392 601 369 601 346 601C323 601 300 601 277 601C254 601 231 601 207.8 601C184.7 601 161.3 601 138.2 601C115 601 92 601 69 601C46 601 23 601 11.5 601L0 601Z" fill="#4a4a4a"></path></svg>